<mxfile host="app.diagrams.net" agent="Mozilla/5.0 (Windows NT 10.0; Win64; x64) AppleWebKit/537.36 (KHTML, like Gecko) Chrome/134.0.0.0 Safari/537.36" version="26.1.3">
  <diagram name="Page-1" id="E34sq7ovbZFMYaG9pScc">
    <mxGraphModel dx="2350" dy="1857" grid="1" gridSize="10" guides="1" tooltips="1" connect="1" arrows="1" fold="1" page="1" pageScale="1" pageWidth="850" pageHeight="1100" math="0" shadow="0">
      <root>
        <mxCell id="0" />
        <mxCell id="1" parent="0" />
        <mxCell id="mnNJ3oLX-RiShslDaMEf-1" value="" style="ellipse;whiteSpace=wrap;html=1;" vertex="1" parent="1">
          <mxGeometry x="360" y="240" width="200" height="80" as="geometry" />
        </mxCell>
        <mxCell id="mnNJ3oLX-RiShslDaMEf-2" value="etterem" style="ellipse;whiteSpace=wrap;html=1;" vertex="1" parent="1">
          <mxGeometry x="370" y="250" width="180" height="60" as="geometry" />
        </mxCell>
        <mxCell id="mnNJ3oLX-RiShslDaMEf-5" value="ekod&lt;div&gt;&lt;br&gt;&lt;/div&gt;" style="rhombus;whiteSpace=wrap;html=1;" vertex="1" parent="1">
          <mxGeometry x="180" y="237" width="80" height="80" as="geometry" />
        </mxCell>
        <mxCell id="mnNJ3oLX-RiShslDaMEf-6" value="" style="endArrow=none;html=1;rounded=0;exitX=1;exitY=0.5;exitDx=0;exitDy=0;entryX=0;entryY=0.5;entryDx=0;entryDy=0;" edge="1" parent="1" source="mnNJ3oLX-RiShslDaMEf-5" target="mnNJ3oLX-RiShslDaMEf-1">
          <mxGeometry width="50" height="50" relative="1" as="geometry">
            <mxPoint x="400" y="300" as="sourcePoint" />
            <mxPoint x="450" y="250" as="targetPoint" />
          </mxGeometry>
        </mxCell>
        <mxCell id="mnNJ3oLX-RiShslDaMEf-7" value="nev" style="ellipse;whiteSpace=wrap;html=1;" vertex="1" parent="1">
          <mxGeometry x="170" y="360" width="130" height="50" as="geometry" />
        </mxCell>
        <mxCell id="mnNJ3oLX-RiShslDaMEf-9" value="csillag" style="ellipse;whiteSpace=wrap;html=1;" vertex="1" parent="1">
          <mxGeometry x="620" y="360" width="130" height="50" as="geometry" />
        </mxCell>
        <mxCell id="mnNJ3oLX-RiShslDaMEf-10" value="cim" style="ellipse;whiteSpace=wrap;html=1;" vertex="1" parent="1">
          <mxGeometry x="370" y="360" width="130" height="50" as="geometry" />
        </mxCell>
        <mxCell id="mnNJ3oLX-RiShslDaMEf-11" value="utca" style="ellipse;whiteSpace=wrap;html=1;" vertex="1" parent="1">
          <mxGeometry x="370" y="490" width="130" height="50" as="geometry" />
        </mxCell>
        <mxCell id="mnNJ3oLX-RiShslDaMEf-12" value="varos" style="ellipse;whiteSpace=wrap;html=1;" vertex="1" parent="1">
          <mxGeometry x="230" y="490" width="130" height="50" as="geometry" />
        </mxCell>
        <mxCell id="mnNJ3oLX-RiShslDaMEf-13" value="hazszam" style="ellipse;whiteSpace=wrap;html=1;" vertex="1" parent="1">
          <mxGeometry x="510" y="490" width="130" height="50" as="geometry" />
        </mxCell>
        <mxCell id="mnNJ3oLX-RiShslDaMEf-14" value="" style="whiteSpace=wrap;html=1;aspect=fixed;" vertex="1" parent="1">
          <mxGeometry x="200" y="420" width="30" height="30" as="geometry" />
        </mxCell>
        <mxCell id="mnNJ3oLX-RiShslDaMEf-16" value="" style="whiteSpace=wrap;html=1;aspect=fixed;" vertex="1" parent="1">
          <mxGeometry x="550" y="560" width="30" height="30" as="geometry" />
        </mxCell>
        <mxCell id="mnNJ3oLX-RiShslDaMEf-17" value="" style="whiteSpace=wrap;html=1;aspect=fixed;" vertex="1" parent="1">
          <mxGeometry x="410" y="560" width="30" height="30" as="geometry" />
        </mxCell>
        <mxCell id="mnNJ3oLX-RiShslDaMEf-18" value="" style="whiteSpace=wrap;html=1;aspect=fixed;" vertex="1" parent="1">
          <mxGeometry x="270" y="560" width="30" height="30" as="geometry" />
        </mxCell>
        <mxCell id="mnNJ3oLX-RiShslDaMEf-19" value="" style="whiteSpace=wrap;html=1;aspect=fixed;" vertex="1" parent="1">
          <mxGeometry x="680" y="430" width="30" height="30" as="geometry" />
        </mxCell>
        <mxCell id="mnNJ3oLX-RiShslDaMEf-20" value="" style="ellipse;whiteSpace=wrap;html=1;" vertex="1" parent="1">
          <mxGeometry x="1100" y="240" width="200" height="80" as="geometry" />
        </mxCell>
        <mxCell id="mnNJ3oLX-RiShslDaMEf-21" value="foszakacs" style="ellipse;whiteSpace=wrap;html=1;" vertex="1" parent="1">
          <mxGeometry x="1110" y="250" width="180" height="60" as="geometry" />
        </mxCell>
        <mxCell id="mnNJ3oLX-RiShslDaMEf-22" value="&lt;div&gt;fkod&lt;/div&gt;" style="rhombus;whiteSpace=wrap;html=1;" vertex="1" parent="1">
          <mxGeometry x="1000" y="250" width="80" height="80" as="geometry" />
        </mxCell>
        <mxCell id="mnNJ3oLX-RiShslDaMEf-23" value="&lt;div&gt;EF&lt;/div&gt;" style="rhombus;whiteSpace=wrap;html=1;" vertex="1" parent="1">
          <mxGeometry x="1440" y="250" width="80" height="80" as="geometry" />
        </mxCell>
        <mxCell id="mnNJ3oLX-RiShslDaMEf-24" value="nev" style="ellipse;whiteSpace=wrap;html=1;" vertex="1" parent="1">
          <mxGeometry x="1070" y="390" width="130" height="50" as="geometry" />
        </mxCell>
        <mxCell id="mnNJ3oLX-RiShslDaMEf-25" value="élekor" style="ellipse;whiteSpace=wrap;html=1;" vertex="1" parent="1">
          <mxGeometry x="1210" y="390" width="130" height="50" as="geometry" />
        </mxCell>
        <mxCell id="mnNJ3oLX-RiShslDaMEf-26" value="vegzettség" style="ellipse;whiteSpace=wrap;html=1;" vertex="1" parent="1">
          <mxGeometry x="1350" y="390" width="130" height="50" as="geometry" />
        </mxCell>
        <mxCell id="mnNJ3oLX-RiShslDaMEf-27" value="" style="whiteSpace=wrap;html=1;aspect=fixed;" vertex="1" parent="1">
          <mxGeometry x="1130" y="450" width="30" height="30" as="geometry" />
        </mxCell>
        <mxCell id="mnNJ3oLX-RiShslDaMEf-28" value="" style="whiteSpace=wrap;html=1;aspect=fixed;" vertex="1" parent="1">
          <mxGeometry x="1270" y="450" width="30" height="30" as="geometry" />
        </mxCell>
        <mxCell id="mnNJ3oLX-RiShslDaMEf-29" value="" style="whiteSpace=wrap;html=1;aspect=fixed;" vertex="1" parent="1">
          <mxGeometry x="1400" y="450" width="30" height="30" as="geometry" />
        </mxCell>
        <mxCell id="mnNJ3oLX-RiShslDaMEf-30" value="" style="ellipse;whiteSpace=wrap;html=1;" vertex="1" parent="1">
          <mxGeometry x="1840" y="260" width="200" height="80" as="geometry" />
        </mxCell>
        <mxCell id="mnNJ3oLX-RiShslDaMEf-31" value="szakacs" style="ellipse;whiteSpace=wrap;html=1;" vertex="1" parent="1">
          <mxGeometry x="1850" y="270" width="180" height="60" as="geometry" />
        </mxCell>
        <mxCell id="mnNJ3oLX-RiShslDaMEf-32" value="&lt;div&gt;szkod&lt;/div&gt;" style="rhombus;whiteSpace=wrap;html=1;" vertex="1" parent="1">
          <mxGeometry x="1700" y="260" width="80" height="80" as="geometry" />
        </mxCell>
        <mxCell id="mnNJ3oLX-RiShslDaMEf-33" value="nev" style="ellipse;whiteSpace=wrap;html=1;" vertex="1" parent="1">
          <mxGeometry x="1770" y="410" width="130" height="50" as="geometry" />
        </mxCell>
        <mxCell id="mnNJ3oLX-RiShslDaMEf-34" value="reszleg" style="ellipse;whiteSpace=wrap;html=1;" vertex="1" parent="1">
          <mxGeometry x="1930" y="400" width="130" height="50" as="geometry" />
        </mxCell>
        <mxCell id="mnNJ3oLX-RiShslDaMEf-35" value="vegzetség" style="ellipse;whiteSpace=wrap;html=1;" vertex="1" parent="1">
          <mxGeometry x="2070" y="400" width="130" height="50" as="geometry" />
        </mxCell>
        <mxCell id="mnNJ3oLX-RiShslDaMEf-36" value="&lt;div&gt;esz&lt;/div&gt;&lt;div&gt;&lt;br&gt;&lt;/div&gt;" style="rhombus;whiteSpace=wrap;html=1;" vertex="1" parent="1">
          <mxGeometry x="2200" y="290" width="80" height="80" as="geometry" />
        </mxCell>
        <mxCell id="mnNJ3oLX-RiShslDaMEf-37" value="" style="whiteSpace=wrap;html=1;aspect=fixed;" vertex="1" parent="1">
          <mxGeometry x="1800" y="470" width="30" height="30" as="geometry" />
        </mxCell>
        <mxCell id="mnNJ3oLX-RiShslDaMEf-38" value="" style="whiteSpace=wrap;html=1;aspect=fixed;" vertex="1" parent="1">
          <mxGeometry x="1980" y="470" width="30" height="30" as="geometry" />
        </mxCell>
        <mxCell id="mnNJ3oLX-RiShslDaMEf-39" value="" style="whiteSpace=wrap;html=1;aspect=fixed;" vertex="1" parent="1">
          <mxGeometry x="2125" y="470" width="30" height="30" as="geometry" />
        </mxCell>
        <mxCell id="mnNJ3oLX-RiShslDaMEf-40" value="" style="ellipse;whiteSpace=wrap;html=1;" vertex="1" parent="1">
          <mxGeometry x="2580" y="260" width="200" height="80" as="geometry" />
        </mxCell>
        <mxCell id="mnNJ3oLX-RiShslDaMEf-41" value="gyakornok" style="ellipse;whiteSpace=wrap;html=1;" vertex="1" parent="1">
          <mxGeometry x="2590" y="270" width="180" height="60" as="geometry" />
        </mxCell>
        <mxCell id="mnNJ3oLX-RiShslDaMEf-44" value="&lt;div&gt;gykod&lt;/div&gt;" style="rhombus;whiteSpace=wrap;html=1;" vertex="1" parent="1">
          <mxGeometry x="2450" y="300" width="80" height="80" as="geometry" />
        </mxCell>
        <mxCell id="mnNJ3oLX-RiShslDaMEf-45" value="&lt;div&gt;egy&lt;/div&gt;" style="rhombus;whiteSpace=wrap;html=1;" vertex="1" parent="1">
          <mxGeometry x="2910" y="300" width="80" height="80" as="geometry" />
        </mxCell>
        <mxCell id="mnNJ3oLX-RiShslDaMEf-46" value="nev" style="ellipse;whiteSpace=wrap;html=1;" vertex="1" parent="1">
          <mxGeometry x="2480" y="400" width="130" height="50" as="geometry" />
        </mxCell>
        <mxCell id="mnNJ3oLX-RiShslDaMEf-47" value="gyakorlat" style="ellipse;whiteSpace=wrap;html=1;" vertex="1" parent="1">
          <mxGeometry x="2615" y="400" width="130" height="50" as="geometry" />
        </mxCell>
        <mxCell id="mnNJ3oLX-RiShslDaMEf-48" value="muszak" style="ellipse;whiteSpace=wrap;html=1;" vertex="1" parent="1">
          <mxGeometry x="2760" y="400" width="130" height="50" as="geometry" />
        </mxCell>
        <mxCell id="mnNJ3oLX-RiShslDaMEf-49" value="kezdete" style="ellipse;whiteSpace=wrap;html=1;" vertex="1" parent="1">
          <mxGeometry x="2550" y="540" width="130" height="50" as="geometry" />
        </mxCell>
        <mxCell id="mnNJ3oLX-RiShslDaMEf-50" value="idotartama" style="ellipse;whiteSpace=wrap;html=1;" vertex="1" parent="1">
          <mxGeometry x="2700" y="550" width="130" height="50" as="geometry" />
        </mxCell>
        <mxCell id="mnNJ3oLX-RiShslDaMEf-51" value="" style="whiteSpace=wrap;html=1;aspect=fixed;" vertex="1" parent="1">
          <mxGeometry x="2520" y="440" width="30" height="30" as="geometry" />
        </mxCell>
        <mxCell id="mnNJ3oLX-RiShslDaMEf-52" value="" style="whiteSpace=wrap;html=1;aspect=fixed;" vertex="1" parent="1">
          <mxGeometry x="2750" y="600" width="30" height="30" as="geometry" />
        </mxCell>
        <mxCell id="mnNJ3oLX-RiShslDaMEf-53" value="" style="whiteSpace=wrap;html=1;aspect=fixed;" vertex="1" parent="1">
          <mxGeometry x="2590" y="600" width="30" height="30" as="geometry" />
        </mxCell>
        <mxCell id="mnNJ3oLX-RiShslDaMEf-55" value="" style="ellipse;whiteSpace=wrap;html=1;" vertex="1" parent="1">
          <mxGeometry x="3240" y="280" width="200" height="80" as="geometry" />
        </mxCell>
        <mxCell id="mnNJ3oLX-RiShslDaMEf-56" value="vendeg" style="ellipse;whiteSpace=wrap;html=1;" vertex="1" parent="1">
          <mxGeometry x="3250" y="290" width="180" height="60" as="geometry" />
        </mxCell>
        <mxCell id="mnNJ3oLX-RiShslDaMEf-57" value="&lt;div&gt;&lt;u&gt;vkod&lt;/u&gt;&lt;/div&gt;" style="rhombus;whiteSpace=wrap;html=1;" vertex="1" parent="1">
          <mxGeometry x="3120" y="320" width="80" height="80" as="geometry" />
        </mxCell>
        <mxCell id="mnNJ3oLX-RiShslDaMEf-58" value="nev" style="ellipse;whiteSpace=wrap;html=1;" vertex="1" parent="1">
          <mxGeometry x="3200" y="420" width="130" height="50" as="geometry" />
        </mxCell>
        <mxCell id="mnNJ3oLX-RiShslDaMEf-59" value="elekot" style="ellipse;whiteSpace=wrap;html=1;" vertex="1" parent="1">
          <mxGeometry x="3350" y="420" width="130" height="50" as="geometry" />
        </mxCell>
        <mxCell id="mnNJ3oLX-RiShslDaMEf-60" value="cim" style="ellipse;whiteSpace=wrap;html=1;" vertex="1" parent="1">
          <mxGeometry x="3510" y="420" width="130" height="50" as="geometry" />
        </mxCell>
        <mxCell id="mnNJ3oLX-RiShslDaMEf-61" value="varos" style="ellipse;whiteSpace=wrap;html=1;" vertex="1" parent="1">
          <mxGeometry x="3420" y="530" width="130" height="50" as="geometry" />
        </mxCell>
        <mxCell id="mnNJ3oLX-RiShslDaMEf-62" value="hazszam" style="ellipse;whiteSpace=wrap;html=1;" vertex="1" parent="1">
          <mxGeometry x="3690" y="525" width="130" height="50" as="geometry" />
        </mxCell>
        <mxCell id="mnNJ3oLX-RiShslDaMEf-63" value="utca" style="ellipse;whiteSpace=wrap;html=1;" vertex="1" parent="1">
          <mxGeometry x="3560" y="530" width="130" height="50" as="geometry" />
        </mxCell>
        <mxCell id="mnNJ3oLX-RiShslDaMEf-64" value="" style="whiteSpace=wrap;html=1;aspect=fixed;" vertex="1" parent="1">
          <mxGeometry x="3250" y="480" width="30" height="30" as="geometry" />
        </mxCell>
        <mxCell id="mnNJ3oLX-RiShslDaMEf-65" value="" style="whiteSpace=wrap;html=1;aspect=fixed;" vertex="1" parent="1">
          <mxGeometry x="3400" y="480" width="30" height="30" as="geometry" />
        </mxCell>
        <mxCell id="mnNJ3oLX-RiShslDaMEf-66" value="" style="whiteSpace=wrap;html=1;aspect=fixed;" vertex="1" parent="1">
          <mxGeometry x="3460" y="590" width="30" height="30" as="geometry" />
        </mxCell>
        <mxCell id="mnNJ3oLX-RiShslDaMEf-67" value="" style="whiteSpace=wrap;html=1;aspect=fixed;" vertex="1" parent="1">
          <mxGeometry x="3620" y="590" width="30" height="30" as="geometry" />
        </mxCell>
        <mxCell id="mnNJ3oLX-RiShslDaMEf-68" value="" style="whiteSpace=wrap;html=1;aspect=fixed;" vertex="1" parent="1">
          <mxGeometry x="3750" y="590" width="30" height="30" as="geometry" />
        </mxCell>
        <mxCell id="mnNJ3oLX-RiShslDaMEf-69" value="" style="ellipse;whiteSpace=wrap;html=1;" vertex="1" parent="1">
          <mxGeometry x="4050" y="290" width="200" height="80" as="geometry" />
        </mxCell>
        <mxCell id="mnNJ3oLX-RiShslDaMEf-70" value="rendeles" style="ellipse;whiteSpace=wrap;html=1;" vertex="1" parent="1">
          <mxGeometry x="4060" y="300" width="180" height="60" as="geometry" />
        </mxCell>
        <mxCell id="mnNJ3oLX-RiShslDaMEf-71" value="&lt;div&gt;evv&lt;/div&gt;" style="rhombus;whiteSpace=wrap;html=1;" vertex="1" parent="1">
          <mxGeometry x="3930" y="345" width="80" height="80" as="geometry" />
        </mxCell>
        <mxCell id="mnNJ3oLX-RiShslDaMEf-72" value="osszeg" style="ellipse;whiteSpace=wrap;html=1;" vertex="1" parent="1">
          <mxGeometry x="4030" y="440" width="130" height="50" as="geometry" />
        </mxCell>
        <mxCell id="mnNJ3oLX-RiShslDaMEf-73" value="etel" style="ellipse;whiteSpace=wrap;html=1;" vertex="1" parent="1">
          <mxGeometry x="4180" y="440" width="130" height="50" as="geometry" />
        </mxCell>
        <mxCell id="mnNJ3oLX-RiShslDaMEf-74" value="&lt;div&gt;eve&lt;/div&gt;" style="rhombus;whiteSpace=wrap;html=1;" vertex="1" parent="1">
          <mxGeometry x="4350" y="340" width="80" height="80" as="geometry" />
        </mxCell>
        <mxCell id="mnNJ3oLX-RiShslDaMEf-75" value="" style="ellipse;whiteSpace=wrap;html=1;" vertex="1" parent="1">
          <mxGeometry x="2040" y="-250" width="200" height="80" as="geometry" />
        </mxCell>
        <mxCell id="mnNJ3oLX-RiShslDaMEf-76" value="vendéglátás" style="ellipse;whiteSpace=wrap;html=1;" vertex="1" parent="1">
          <mxGeometry x="2050" y="-240" width="180" height="60" as="geometry" />
        </mxCell>
        <mxCell id="mnNJ3oLX-RiShslDaMEf-77" value="" style="whiteSpace=wrap;html=1;aspect=fixed;" vertex="1" parent="1">
          <mxGeometry x="2835" y="440" width="30" height="30" as="geometry" />
        </mxCell>
        <mxCell id="mnNJ3oLX-RiShslDaMEf-78" value="" style="whiteSpace=wrap;html=1;aspect=fixed;" vertex="1" parent="1">
          <mxGeometry x="4070" y="510" width="30" height="30" as="geometry" />
        </mxCell>
        <mxCell id="mnNJ3oLX-RiShslDaMEf-79" value="" style="whiteSpace=wrap;html=1;aspect=fixed;" vertex="1" parent="1">
          <mxGeometry x="4250" y="510" width="30" height="30" as="geometry" />
        </mxCell>
        <mxCell id="mnNJ3oLX-RiShslDaMEf-80" value="" style="endArrow=none;html=1;rounded=0;exitX=0.5;exitY=0;exitDx=0;exitDy=0;" edge="1" parent="1" source="mnNJ3oLX-RiShslDaMEf-1">
          <mxGeometry width="50" height="50" relative="1" as="geometry">
            <mxPoint x="1960" y="240" as="sourcePoint" />
            <mxPoint x="2100" y="-170" as="targetPoint" />
          </mxGeometry>
        </mxCell>
        <mxCell id="mnNJ3oLX-RiShslDaMEf-81" value="" style="endArrow=none;html=1;rounded=0;" edge="1" parent="1">
          <mxGeometry width="50" height="50" relative="1" as="geometry">
            <mxPoint x="1970" y="250" as="sourcePoint" />
            <mxPoint x="2110" y="-160" as="targetPoint" />
          </mxGeometry>
        </mxCell>
        <mxCell id="mnNJ3oLX-RiShslDaMEf-82" value="" style="endArrow=none;html=1;rounded=0;" edge="1" parent="1" source="mnNJ3oLX-RiShslDaMEf-21">
          <mxGeometry width="50" height="50" relative="1" as="geometry">
            <mxPoint x="1925" y="220" as="sourcePoint" />
            <mxPoint x="2065" y="-190" as="targetPoint" />
          </mxGeometry>
        </mxCell>
        <mxCell id="mnNJ3oLX-RiShslDaMEf-83" value="" style="endArrow=none;html=1;rounded=0;entryX=0.65;entryY=1.038;entryDx=0;entryDy=0;entryPerimeter=0;" edge="1" parent="1" source="mnNJ3oLX-RiShslDaMEf-41" target="mnNJ3oLX-RiShslDaMEf-75">
          <mxGeometry width="50" height="50" relative="1" as="geometry">
            <mxPoint x="1990" y="270" as="sourcePoint" />
            <mxPoint x="2130" y="-140" as="targetPoint" />
          </mxGeometry>
        </mxCell>
        <mxCell id="mnNJ3oLX-RiShslDaMEf-84" value="" style="endArrow=none;html=1;rounded=0;entryX=1;entryY=0.5;entryDx=0;entryDy=0;exitX=0.565;exitY=-0.025;exitDx=0;exitDy=0;exitPerimeter=0;" edge="1" parent="1" source="mnNJ3oLX-RiShslDaMEf-55" target="mnNJ3oLX-RiShslDaMEf-76">
          <mxGeometry width="50" height="50" relative="1" as="geometry">
            <mxPoint x="2740" y="210" as="sourcePoint" />
            <mxPoint x="2180" y="-157" as="targetPoint" />
          </mxGeometry>
        </mxCell>
        <mxCell id="mnNJ3oLX-RiShslDaMEf-85" value="" style="endArrow=none;html=1;rounded=0;entryX=1;entryY=0.5;entryDx=0;entryDy=0;" edge="1" parent="1" source="mnNJ3oLX-RiShslDaMEf-70">
          <mxGeometry width="50" height="50" relative="1" as="geometry">
            <mxPoint x="3363" y="288" as="sourcePoint" />
            <mxPoint x="2240" y="-200" as="targetPoint" />
          </mxGeometry>
        </mxCell>
        <mxCell id="mnNJ3oLX-RiShslDaMEf-86" value="" style="endArrow=none;dashed=1;html=1;rounded=0;entryX=0.5;entryY=1;entryDx=0;entryDy=0;" edge="1" parent="1" source="mnNJ3oLX-RiShslDaMEf-57" target="mnNJ3oLX-RiShslDaMEf-71">
          <mxGeometry width="50" height="50" relative="1" as="geometry">
            <mxPoint x="3010" y="840" as="sourcePoint" />
            <mxPoint x="3750" y="520" as="targetPoint" />
            <Array as="points">
              <mxPoint x="3120" y="830" />
              <mxPoint x="3860" y="830" />
            </Array>
          </mxGeometry>
        </mxCell>
        <mxCell id="mnNJ3oLX-RiShslDaMEf-87" value="" style="endArrow=none;dashed=1;html=1;rounded=0;entryX=0.5;entryY=1;entryDx=0;entryDy=0;exitX=0;exitY=0;exitDx=0;exitDy=0;" edge="1" parent="1" source="mnNJ3oLX-RiShslDaMEf-5" target="mnNJ3oLX-RiShslDaMEf-74">
          <mxGeometry width="50" height="50" relative="1" as="geometry">
            <mxPoint x="-240" y="120" as="sourcePoint" />
            <mxPoint x="3750" y="430" as="targetPoint" />
            <Array as="points">
              <mxPoint x="-160" y="340" />
              <mxPoint x="-90" y="1020" />
              <mxPoint x="4530" y="910" />
            </Array>
          </mxGeometry>
        </mxCell>
        <mxCell id="mnNJ3oLX-RiShslDaMEf-89" value="" style="endArrow=none;dashed=1;html=1;rounded=0;entryX=1;entryY=0;entryDx=0;entryDy=0;exitX=0;exitY=0.5;exitDx=0;exitDy=0;" edge="1" parent="1" source="mnNJ3oLX-RiShslDaMEf-5" target="mnNJ3oLX-RiShslDaMEf-45">
          <mxGeometry width="50" height="50" relative="1" as="geometry">
            <mxPoint x="-100" y="370" as="sourcePoint" />
            <mxPoint x="3750" y="430" as="targetPoint" />
            <Array as="points">
              <mxPoint x="-40" y="400" />
              <mxPoint x="-20" y="870" />
              <mxPoint x="2970" y="910" />
            </Array>
          </mxGeometry>
        </mxCell>
        <mxCell id="mnNJ3oLX-RiShslDaMEf-91" value="" style="endArrow=none;html=1;rounded=0;entryX=0;entryY=1;entryDx=0;entryDy=0;exitX=0;exitY=1;exitDx=0;exitDy=0;" edge="1" parent="1" source="mnNJ3oLX-RiShslDaMEf-57" target="mnNJ3oLX-RiShslDaMEf-56">
          <mxGeometry width="50" height="50" relative="1" as="geometry">
            <mxPoint x="3700" y="480" as="sourcePoint" />
            <mxPoint x="3750" y="430" as="targetPoint" />
          </mxGeometry>
        </mxCell>
        <mxCell id="mnNJ3oLX-RiShslDaMEf-92" value="" style="endArrow=none;html=1;rounded=0;" edge="1" parent="1" source="mnNJ3oLX-RiShslDaMEf-58" target="mnNJ3oLX-RiShslDaMEf-56">
          <mxGeometry width="50" height="50" relative="1" as="geometry">
            <mxPoint x="3150" y="390" as="sourcePoint" />
            <mxPoint x="3286" y="351" as="targetPoint" />
          </mxGeometry>
        </mxCell>
        <mxCell id="mnNJ3oLX-RiShslDaMEf-93" value="" style="endArrow=none;html=1;rounded=0;exitX=0.5;exitY=0;exitDx=0;exitDy=0;" edge="1" parent="1" source="mnNJ3oLX-RiShslDaMEf-59">
          <mxGeometry width="50" height="50" relative="1" as="geometry">
            <mxPoint x="3289" y="431" as="sourcePoint" />
            <mxPoint x="3333" y="359" as="targetPoint" />
          </mxGeometry>
        </mxCell>
        <mxCell id="mnNJ3oLX-RiShslDaMEf-94" value="" style="endArrow=none;html=1;rounded=0;entryX=1;entryY=1;entryDx=0;entryDy=0;" edge="1" parent="1" source="mnNJ3oLX-RiShslDaMEf-60" target="mnNJ3oLX-RiShslDaMEf-56">
          <mxGeometry width="50" height="50" relative="1" as="geometry">
            <mxPoint x="3425" y="430" as="sourcePoint" />
            <mxPoint x="3343" y="369" as="targetPoint" />
          </mxGeometry>
        </mxCell>
        <mxCell id="mnNJ3oLX-RiShslDaMEf-95" value="" style="endArrow=none;html=1;rounded=0;entryX=0;entryY=0;entryDx=0;entryDy=0;" edge="1" parent="1" target="mnNJ3oLX-RiShslDaMEf-63">
          <mxGeometry width="50" height="50" relative="1" as="geometry">
            <mxPoint x="3550" y="434" as="sourcePoint" />
            <mxPoint x="3414" y="351" as="targetPoint" />
          </mxGeometry>
        </mxCell>
        <mxCell id="mnNJ3oLX-RiShslDaMEf-96" value="" style="endArrow=none;html=1;rounded=0;" edge="1" parent="1" source="mnNJ3oLX-RiShslDaMEf-60" target="mnNJ3oLX-RiShslDaMEf-62">
          <mxGeometry width="50" height="50" relative="1" as="geometry">
            <mxPoint x="3560" y="444" as="sourcePoint" />
            <mxPoint x="3589" y="547" as="targetPoint" />
          </mxGeometry>
        </mxCell>
        <mxCell id="mnNJ3oLX-RiShslDaMEf-97" value="" style="endArrow=none;html=1;rounded=0;entryX=0;entryY=1;entryDx=0;entryDy=0;" edge="1" parent="1" source="mnNJ3oLX-RiShslDaMEf-60" target="mnNJ3oLX-RiShslDaMEf-61">
          <mxGeometry width="50" height="50" relative="1" as="geometry">
            <mxPoint x="3621" y="476" as="sourcePoint" />
            <mxPoint x="3729" y="539" as="targetPoint" />
          </mxGeometry>
        </mxCell>
        <mxCell id="mnNJ3oLX-RiShslDaMEf-98" value="" style="endArrow=none;dashed=1;html=1;dashPattern=1 3;strokeWidth=2;rounded=0;entryX=1;entryY=1;entryDx=0;entryDy=0;exitX=0.15;exitY=0.613;exitDx=0;exitDy=0;exitPerimeter=0;" edge="1" parent="1" source="mnNJ3oLX-RiShslDaMEf-5" target="mnNJ3oLX-RiShslDaMEf-23">
          <mxGeometry width="50" height="50" relative="1" as="geometry">
            <mxPoint x="70" y="660" as="sourcePoint" />
            <mxPoint x="1000" y="400" as="targetPoint" />
            <Array as="points">
              <mxPoint x="70" y="590" />
              <mxPoint x="440" y="630" />
              <mxPoint x="830" y="640" />
              <mxPoint x="1580" y="580" />
            </Array>
          </mxGeometry>
        </mxCell>
        <mxCell id="mnNJ3oLX-RiShslDaMEf-99" value="" style="endArrow=none;html=1;rounded=0;exitX=1;exitY=1;exitDx=0;exitDy=0;" edge="1" parent="1" source="mnNJ3oLX-RiShslDaMEf-22" target="mnNJ3oLX-RiShslDaMEf-21">
          <mxGeometry width="50" height="50" relative="1" as="geometry">
            <mxPoint x="1080" y="510" as="sourcePoint" />
            <mxPoint x="1130" y="460" as="targetPoint" />
          </mxGeometry>
        </mxCell>
        <mxCell id="mnNJ3oLX-RiShslDaMEf-100" value="" style="endArrow=none;html=1;rounded=0;entryX=1;entryY=0.5;entryDx=0;entryDy=0;" edge="1" parent="1" source="mnNJ3oLX-RiShslDaMEf-23" target="mnNJ3oLX-RiShslDaMEf-20">
          <mxGeometry width="50" height="50" relative="1" as="geometry">
            <mxPoint x="1070" y="320" as="sourcePoint" />
            <mxPoint x="1134" y="306" as="targetPoint" />
          </mxGeometry>
        </mxCell>
        <mxCell id="mnNJ3oLX-RiShslDaMEf-101" value="" style="endArrow=none;html=1;rounded=0;entryX=0.667;entryY=1;entryDx=0;entryDy=0;entryPerimeter=0;" edge="1" parent="1" source="mnNJ3oLX-RiShslDaMEf-9" target="mnNJ3oLX-RiShslDaMEf-2">
          <mxGeometry width="50" height="50" relative="1" as="geometry">
            <mxPoint x="740" y="510" as="sourcePoint" />
            <mxPoint x="790" y="460" as="targetPoint" />
          </mxGeometry>
        </mxCell>
        <mxCell id="mnNJ3oLX-RiShslDaMEf-102" value="" style="endArrow=none;html=1;rounded=0;entryX=0.5;entryY=1;entryDx=0;entryDy=0;" edge="1" parent="1" source="mnNJ3oLX-RiShslDaMEf-10" target="mnNJ3oLX-RiShslDaMEf-1">
          <mxGeometry width="50" height="50" relative="1" as="geometry">
            <mxPoint x="649" y="377" as="sourcePoint" />
            <mxPoint x="500" y="320" as="targetPoint" />
          </mxGeometry>
        </mxCell>
        <mxCell id="mnNJ3oLX-RiShslDaMEf-103" value="" style="endArrow=none;html=1;rounded=0;entryX=0;entryY=1;entryDx=0;entryDy=0;" edge="1" parent="1" source="mnNJ3oLX-RiShslDaMEf-7" target="mnNJ3oLX-RiShslDaMEf-2">
          <mxGeometry width="50" height="50" relative="1" as="geometry">
            <mxPoint x="468" y="372" as="sourcePoint" />
            <mxPoint x="510" y="330" as="targetPoint" />
          </mxGeometry>
        </mxCell>
        <mxCell id="mnNJ3oLX-RiShslDaMEf-104" value="" style="endArrow=none;html=1;rounded=0;" edge="1" parent="1" source="mnNJ3oLX-RiShslDaMEf-72" target="mnNJ3oLX-RiShslDaMEf-69">
          <mxGeometry width="50" height="50" relative="1" as="geometry">
            <mxPoint x="3490" y="650" as="sourcePoint" />
            <mxPoint x="3540" y="600" as="targetPoint" />
          </mxGeometry>
        </mxCell>
        <mxCell id="mnNJ3oLX-RiShslDaMEf-105" value="" style="endArrow=none;html=1;rounded=0;" edge="1" parent="1" source="mnNJ3oLX-RiShslDaMEf-73">
          <mxGeometry width="50" height="50" relative="1" as="geometry">
            <mxPoint x="4115" y="450" as="sourcePoint" />
            <mxPoint x="4144" y="379" as="targetPoint" />
          </mxGeometry>
        </mxCell>
        <mxCell id="mnNJ3oLX-RiShslDaMEf-107" value="" style="endArrow=none;html=1;rounded=0;entryX=1;entryY=0.5;entryDx=0;entryDy=0;" edge="1" parent="1" source="mnNJ3oLX-RiShslDaMEf-74" target="mnNJ3oLX-RiShslDaMEf-69">
          <mxGeometry width="50" height="50" relative="1" as="geometry">
            <mxPoint x="4228" y="452" as="sourcePoint" />
            <mxPoint x="4154" y="389" as="targetPoint" />
          </mxGeometry>
        </mxCell>
        <mxCell id="mnNJ3oLX-RiShslDaMEf-108" value="" style="endArrow=none;html=1;rounded=0;entryX=0;entryY=0.5;entryDx=0;entryDy=0;exitX=1;exitY=0;exitDx=0;exitDy=0;" edge="1" parent="1" source="mnNJ3oLX-RiShslDaMEf-71" target="mnNJ3oLX-RiShslDaMEf-70">
          <mxGeometry width="50" height="50" relative="1" as="geometry">
            <mxPoint x="4371" y="379" as="sourcePoint" />
            <mxPoint x="4260" y="340" as="targetPoint" />
          </mxGeometry>
        </mxCell>
        <mxCell id="mnNJ3oLX-RiShslDaMEf-109" value="" style="endArrow=none;html=1;rounded=0;entryX=0;entryY=0.5;entryDx=0;entryDy=0;" edge="1" parent="1" source="mnNJ3oLX-RiShslDaMEf-44" target="mnNJ3oLX-RiShslDaMEf-41">
          <mxGeometry width="50" height="50" relative="1" as="geometry">
            <mxPoint x="2620" y="650" as="sourcePoint" />
            <mxPoint x="2670" y="600" as="targetPoint" />
          </mxGeometry>
        </mxCell>
        <mxCell id="mnNJ3oLX-RiShslDaMEf-110" value="" style="endArrow=none;html=1;rounded=0;entryX=1;entryY=0.5;entryDx=0;entryDy=0;exitX=0;exitY=0;exitDx=0;exitDy=0;" edge="1" parent="1" source="mnNJ3oLX-RiShslDaMEf-45" target="mnNJ3oLX-RiShslDaMEf-40">
          <mxGeometry width="50" height="50" relative="1" as="geometry">
            <mxPoint x="2529" y="339" as="sourcePoint" />
            <mxPoint x="2600" y="310" as="targetPoint" />
          </mxGeometry>
        </mxCell>
        <mxCell id="mnNJ3oLX-RiShslDaMEf-111" value="" style="endArrow=none;html=1;rounded=0;entryX=1;entryY=1;entryDx=0;entryDy=0;" edge="1" parent="1" source="mnNJ3oLX-RiShslDaMEf-48" target="mnNJ3oLX-RiShslDaMEf-41">
          <mxGeometry width="50" height="50" relative="1" as="geometry">
            <mxPoint x="2940" y="330" as="sourcePoint" />
            <mxPoint x="2790" y="310" as="targetPoint" />
          </mxGeometry>
        </mxCell>
        <mxCell id="mnNJ3oLX-RiShslDaMEf-112" value="" style="endArrow=none;html=1;rounded=0;entryX=0.63;entryY=0.97;entryDx=0;entryDy=0;entryPerimeter=0;" edge="1" parent="1" source="mnNJ3oLX-RiShslDaMEf-47" target="mnNJ3oLX-RiShslDaMEf-40">
          <mxGeometry width="50" height="50" relative="1" as="geometry">
            <mxPoint x="2816" y="411" as="sourcePoint" />
            <mxPoint x="2754" y="331" as="targetPoint" />
          </mxGeometry>
        </mxCell>
        <mxCell id="mnNJ3oLX-RiShslDaMEf-113" value="" style="endArrow=none;html=1;rounded=0;entryX=0;entryY=1;entryDx=0;entryDy=0;" edge="1" parent="1" source="mnNJ3oLX-RiShslDaMEf-46" target="mnNJ3oLX-RiShslDaMEf-41">
          <mxGeometry width="50" height="50" relative="1" as="geometry">
            <mxPoint x="2698" y="410" as="sourcePoint" />
            <mxPoint x="2716" y="348" as="targetPoint" />
          </mxGeometry>
        </mxCell>
        <mxCell id="mnNJ3oLX-RiShslDaMEf-114" value="" style="endArrow=none;html=1;rounded=0;" edge="1" parent="1" target="mnNJ3oLX-RiShslDaMEf-49">
          <mxGeometry width="50" height="50" relative="1" as="geometry">
            <mxPoint x="2670" y="460" as="sourcePoint" />
            <mxPoint x="2716" y="348" as="targetPoint" />
          </mxGeometry>
        </mxCell>
        <mxCell id="mnNJ3oLX-RiShslDaMEf-115" value="" style="endArrow=none;html=1;rounded=0;entryX=0.5;entryY=1;entryDx=0;entryDy=0;" edge="1" parent="1" source="mnNJ3oLX-RiShslDaMEf-47" target="mnNJ3oLX-RiShslDaMEf-50">
          <mxGeometry width="50" height="50" relative="1" as="geometry">
            <mxPoint x="2680" y="470" as="sourcePoint" />
            <mxPoint x="2638" y="550" as="targetPoint" />
          </mxGeometry>
        </mxCell>
        <mxCell id="mnNJ3oLX-RiShslDaMEf-116" value="" style="endArrow=none;html=1;rounded=0;entryX=1;entryY=0.5;entryDx=0;entryDy=0;exitX=0;exitY=1;exitDx=0;exitDy=0;" edge="1" parent="1" source="mnNJ3oLX-RiShslDaMEf-36" target="mnNJ3oLX-RiShslDaMEf-31">
          <mxGeometry width="50" height="50" relative="1" as="geometry">
            <mxPoint x="1880" y="680" as="sourcePoint" />
            <mxPoint x="1930" y="630" as="targetPoint" />
          </mxGeometry>
        </mxCell>
        <mxCell id="mnNJ3oLX-RiShslDaMEf-117" value="" style="endArrow=none;html=1;rounded=0;exitX=1;exitY=1;exitDx=0;exitDy=0;" edge="1" parent="1" source="mnNJ3oLX-RiShslDaMEf-32">
          <mxGeometry width="50" height="50" relative="1" as="geometry">
            <mxPoint x="2230" y="360" as="sourcePoint" />
            <mxPoint x="1870" y="310" as="targetPoint" />
          </mxGeometry>
        </mxCell>
        <mxCell id="mnNJ3oLX-RiShslDaMEf-118" value="" style="endArrow=none;dashed=1;html=1;rounded=0;entryX=1;entryY=1;entryDx=0;entryDy=0;" edge="1" parent="1" target="mnNJ3oLX-RiShslDaMEf-36">
          <mxGeometry width="50" height="50" relative="1" as="geometry">
            <mxPoint x="190" y="290" as="sourcePoint" />
            <mxPoint x="1930" y="630" as="targetPoint" />
            <Array as="points">
              <mxPoint y="440" />
              <mxPoint x="20" y="840" />
              <mxPoint x="2270" y="850" />
            </Array>
          </mxGeometry>
        </mxCell>
        <mxCell id="mnNJ3oLX-RiShslDaMEf-119" value="" style="endArrow=none;html=1;rounded=0;" edge="1" parent="1" source="mnNJ3oLX-RiShslDaMEf-33" target="mnNJ3oLX-RiShslDaMEf-31">
          <mxGeometry width="50" height="50" relative="1" as="geometry">
            <mxPoint x="1420" y="670" as="sourcePoint" />
            <mxPoint x="1470" y="620" as="targetPoint" />
          </mxGeometry>
        </mxCell>
        <mxCell id="mnNJ3oLX-RiShslDaMEf-120" value="" style="endArrow=none;html=1;rounded=0;" edge="1" parent="1" source="mnNJ3oLX-RiShslDaMEf-34">
          <mxGeometry width="50" height="50" relative="1" as="geometry">
            <mxPoint x="1864" y="421" as="sourcePoint" />
            <mxPoint x="1927" y="339" as="targetPoint" />
          </mxGeometry>
        </mxCell>
        <mxCell id="mnNJ3oLX-RiShslDaMEf-121" value="" style="endArrow=none;html=1;rounded=0;entryX=1;entryY=1;entryDx=0;entryDy=0;" edge="1" parent="1" source="mnNJ3oLX-RiShslDaMEf-35" target="mnNJ3oLX-RiShslDaMEf-30">
          <mxGeometry width="50" height="50" relative="1" as="geometry">
            <mxPoint x="1986" y="411" as="sourcePoint" />
            <mxPoint x="1937" y="349" as="targetPoint" />
          </mxGeometry>
        </mxCell>
        <mxCell id="mnNJ3oLX-RiShslDaMEf-122" value="" style="endArrow=none;html=1;rounded=0;entryX=1;entryY=1;entryDx=0;entryDy=0;" edge="1" parent="1" source="mnNJ3oLX-RiShslDaMEf-26" target="mnNJ3oLX-RiShslDaMEf-21">
          <mxGeometry width="50" height="50" relative="1" as="geometry">
            <mxPoint x="1420" y="670" as="sourcePoint" />
            <mxPoint x="1470" y="620" as="targetPoint" />
          </mxGeometry>
        </mxCell>
        <mxCell id="mnNJ3oLX-RiShslDaMEf-123" value="" style="endArrow=none;html=1;rounded=0;" edge="1" parent="1" source="mnNJ3oLX-RiShslDaMEf-25" target="mnNJ3oLX-RiShslDaMEf-21">
          <mxGeometry width="50" height="50" relative="1" as="geometry">
            <mxPoint x="1395" y="403" as="sourcePoint" />
            <mxPoint x="1274" y="311" as="targetPoint" />
          </mxGeometry>
        </mxCell>
        <mxCell id="mnNJ3oLX-RiShslDaMEf-124" value="" style="endArrow=none;html=1;rounded=0;entryX=0;entryY=1;entryDx=0;entryDy=0;" edge="1" parent="1" source="mnNJ3oLX-RiShslDaMEf-24" target="mnNJ3oLX-RiShslDaMEf-21">
          <mxGeometry width="50" height="50" relative="1" as="geometry">
            <mxPoint x="1271" y="401" as="sourcePoint" />
            <mxPoint x="1226" y="320" as="targetPoint" />
          </mxGeometry>
        </mxCell>
        <mxCell id="mnNJ3oLX-RiShslDaMEf-125" value="" style="endArrow=none;html=1;rounded=0;entryX=0.5;entryY=1;entryDx=0;entryDy=0;" edge="1" parent="1" source="mnNJ3oLX-RiShslDaMEf-13" target="mnNJ3oLX-RiShslDaMEf-10">
          <mxGeometry width="50" height="50" relative="1" as="geometry">
            <mxPoint x="1000" y="620" as="sourcePoint" />
            <mxPoint x="1146" y="311" as="targetPoint" />
          </mxGeometry>
        </mxCell>
        <mxCell id="mnNJ3oLX-RiShslDaMEf-126" value="" style="endArrow=none;html=1;rounded=0;entryX=0.5;entryY=1;entryDx=0;entryDy=0;exitX=0;exitY=1;exitDx=0;exitDy=0;" edge="1" parent="1" source="mnNJ3oLX-RiShslDaMEf-11">
          <mxGeometry width="50" height="50" relative="1" as="geometry">
            <mxPoint x="555" y="503" as="sourcePoint" />
            <mxPoint x="445" y="420" as="targetPoint" />
          </mxGeometry>
        </mxCell>
        <mxCell id="mnNJ3oLX-RiShslDaMEf-127" value="" style="endArrow=none;html=1;rounded=0;entryX=0.5;entryY=1;entryDx=0;entryDy=0;" edge="1" parent="1" source="mnNJ3oLX-RiShslDaMEf-12">
          <mxGeometry width="50" height="50" relative="1" as="geometry">
            <mxPoint x="398" y="542" as="sourcePoint" />
            <mxPoint x="455" y="430" as="targetPoint" />
          </mxGeometry>
        </mxCell>
        <mxCell id="mnNJ3oLX-RiShslDaMEf-129" value="muszak" style="ellipse;whiteSpace=wrap;html=1;" vertex="1" parent="1">
          <mxGeometry x="2775" y="405" width="100" height="40" as="geometry" />
        </mxCell>
        <mxCell id="mnNJ3oLX-RiShslDaMEf-138" value="" style="endArrow=classic;html=1;rounded=0;" edge="1" parent="1" source="mnNJ3oLX-RiShslDaMEf-74">
          <mxGeometry width="50" height="50" relative="1" as="geometry">
            <mxPoint x="4290" y="630" as="sourcePoint" />
            <mxPoint x="4430" y="530" as="targetPoint" />
          </mxGeometry>
        </mxCell>
        <mxCell id="mnNJ3oLX-RiShslDaMEf-139" value="" style="endArrow=classic;html=1;rounded=0;" edge="1" parent="1" source="mnNJ3oLX-RiShslDaMEf-71">
          <mxGeometry width="50" height="50" relative="1" as="geometry">
            <mxPoint x="4290" y="630" as="sourcePoint" />
            <mxPoint x="3970" y="470" as="targetPoint" />
          </mxGeometry>
        </mxCell>
        <mxCell id="mnNJ3oLX-RiShslDaMEf-140" value="" style="endArrow=classic;html=1;rounded=0;" edge="1" parent="1" source="mnNJ3oLX-RiShslDaMEf-45">
          <mxGeometry width="50" height="50" relative="1" as="geometry">
            <mxPoint x="3310" y="630" as="sourcePoint" />
            <mxPoint x="2950" y="540" as="targetPoint" />
          </mxGeometry>
        </mxCell>
        <mxCell id="mnNJ3oLX-RiShslDaMEf-141" value="" style="endArrow=classic;html=1;rounded=0;exitX=1;exitY=1;exitDx=0;exitDy=0;" edge="1" parent="1" source="mnNJ3oLX-RiShslDaMEf-36">
          <mxGeometry width="50" height="50" relative="1" as="geometry">
            <mxPoint x="2540" y="630" as="sourcePoint" />
            <mxPoint x="2270" y="430" as="targetPoint" />
          </mxGeometry>
        </mxCell>
        <mxCell id="mnNJ3oLX-RiShslDaMEf-142" value="" style="endArrow=classic;html=1;rounded=0;exitX=1;exitY=1;exitDx=0;exitDy=0;" edge="1" parent="1" source="mnNJ3oLX-RiShslDaMEf-23">
          <mxGeometry width="50" height="50" relative="1" as="geometry">
            <mxPoint x="2020" y="630" as="sourcePoint" />
            <mxPoint x="1560" y="450" as="targetPoint" />
          </mxGeometry>
        </mxCell>
      </root>
    </mxGraphModel>
  </diagram>
</mxfile>
